<?xml version="1.0" encoding="utf-8"?>
<!-- Generator: Adobe Illustrator 16.0.0, SVG Export Plug-In . SVG Version: 6.00 Build 0)  -->
<!DOCTYPE svg PUBLIC "-//W3C//DTD SVG 1.1//EN" "http://www.w3.org/Graphics/SVG/1.1/DTD/svg11.dtd">
<svg version="1.1" id="Layer_1" xmlns="http://www.w3.org/2000/svg" xmlns:xlink="http://www.w3.org/1999/xlink" x="0px" y="0px"
	 width="379.89px" height="119.156px" viewBox="-105.111 0 379.89 119.156" enable-background="new -105.111 0 379.89 119.156"
	 xml:space="preserve">
<g>
	<g enable-background="new    ">
		<path fill="#ECECEC" d="M-1.731,47.246V17.12h14.81c3.472,0,5.837,0.555,7.096,1.666c1.258,1.111,1.887,3.204,1.887,6.279
			c0,3.723-1.479,5.915-4.436,6.577v0.11c3.443,0.529,5.165,2.921,5.165,7.173c0,3.075-0.662,5.23-1.986,6.467
			c-1.324,1.235-3.634,1.854-6.93,1.854H-1.731z M3.985,29.766h6.997c2.266,0,3.711-0.25,4.337-0.751
			c0.625-0.5,0.938-1.655,0.938-3.465c0-2.413-1.369-3.62-4.105-3.62H3.985V29.766z M3.985,42.434h6.268l2.008-0.044
			c1.928,0,3.197-0.272,3.807-0.816c0.611-0.545,0.916-1.692,0.916-3.443c0-1.824-0.32-2.972-0.96-3.443
			c-0.64-0.471-2.218-0.706-4.734-0.706H3.985V42.434z"/>
		<path fill="#ECECEC" d="M51.901,17.12L40.733,35.747v11.499h-5.716V35.747L24.158,17.12h6.621l4.546,7.945
			c0.25,0.441,0.677,1.258,1.28,2.449l0.64,1.214l0.618,1.214h0.155l0.64-1.214l0.64-1.214c0.544-1.089,0.979-1.905,1.302-2.449
			l4.591-7.945H51.901z"/>
		<path fill="#ECECEC" d="M59.537,21.93v7.77h14.125v4.215H59.537v8.52h15.03v4.812H53.821V17.12h20.614v4.811H59.537z"/>
		<path fill="#ECECEC" d="M112.484,25.903h-5.583c-0.03-0.279-0.044-0.485-0.044-0.617c-0.132-1.692-0.507-2.756-1.125-3.189
			s-2.075-0.651-4.37-0.651c-2.708,0-4.477,0.251-5.308,0.751c-0.831,0.5-1.247,1.552-1.247,3.155c0,1.898,0.338,3.039,1.015,3.422
			c0.677,0.382,2.913,0.677,6.709,0.883c4.487,0.25,7.39,0.89,8.707,1.92c1.316,1.03,1.975,3.171,1.975,6.422
			c0,4.003-0.772,6.589-2.317,7.758c-1.545,1.17-4.952,1.755-10.219,1.755c-4.738,0-7.883-0.573-9.435-1.722
			c-1.553-1.147-2.329-3.472-2.329-6.974l-0.022-1.104h5.562l0.022,0.64c0,2.104,0.367,3.392,1.104,3.862
			c0.735,0.471,2.744,0.706,6.025,0.706c2.561,0,4.194-0.271,4.9-0.816c0.706-0.544,1.06-1.802,1.06-3.774
			c0-1.456-0.269-2.424-0.806-2.901c-0.538-0.479-1.696-0.77-3.476-0.872l-3.156-0.199c-4.767-0.279-7.813-0.941-9.137-1.986
			c-1.324-1.044-1.986-3.288-1.986-6.731c0-3.517,0.798-5.859,2.395-7.029c1.596-1.17,4.786-1.755,9.568-1.755
			c4.532,0,7.584,0.537,9.159,1.611c1.574,1.074,2.361,3.171,2.361,6.29V25.903z"/>
		<path fill="#ECECEC" d="M145.149,17.12v30.126h-9.689l-8.607-16.531c-0.427-0.823-1.096-2.266-2.008-4.325l-0.972-2.163
			l-0.949-2.163h-0.221l0.088,1.986l0.066,1.964l0.044,3.951v17.281h-5.716V17.12h9.688l7.836,15.272
			c0.691,1.354,1.493,2.994,2.405,4.922l1.147,2.449l1.148,2.473h0.198l-0.066-1.942l-0.065-1.942l-0.045-3.885V17.12H145.149z"/>
		<path fill="#ECECEC" d="M162.96,16.854c5.475,0,8.998,0.909,10.572,2.726c1.574,1.817,2.361,5.882,2.361,12.194
			c0,6.901-0.791,11.249-2.373,13.044c-1.581,1.795-5.41,2.692-11.487,2.692c-5.474,0-9.013-0.886-10.616-2.659
			s-2.405-5.676-2.405-11.709c0-7.18,0.787-11.689,2.362-13.529C152.948,17.774,156.809,16.854,162.96,16.854z M162.518,21.755
			c-3.84,0-6.084,0.493-6.73,1.479c-0.648,0.985-0.972,4.399-0.972,10.24c0,4.326,0.378,6.931,1.137,7.813
			c0.757,0.883,2.99,1.324,6.698,1.324c3.546,0,5.672-0.497,6.379-1.49c0.705-0.993,1.059-4.006,1.059-9.037
			c0-5.047-0.334-8.03-1.004-8.95C168.415,22.215,166.227,21.755,162.518,21.755z"/>
		<path fill="#ECECEC" d="M192.27,16.854c5.473,0,8.996,0.909,10.571,2.726c1.574,1.817,2.361,5.882,2.361,12.194
			c0,6.901-0.791,11.249-2.372,13.044c-1.582,1.795-5.412,2.692-11.488,2.692c-5.473,0-9.012-0.886-10.615-2.659
			c-1.604-1.773-2.406-5.676-2.406-11.709c0-7.18,0.787-11.689,2.361-13.529C182.257,17.774,186.12,16.854,192.27,16.854z
			 M191.829,21.755c-3.841,0-6.085,0.493-6.732,1.479s-0.971,4.399-0.971,10.24c0,4.326,0.379,6.931,1.137,7.813
			s2.99,1.324,6.698,1.324c3.546,0,5.673-0.497,6.378-1.49c0.707-0.993,1.061-4.006,1.061-9.037c0-5.047-0.336-8.03-1.005-8.95
			C197.725,22.215,195.536,21.755,191.829,21.755z"/>
		<path fill="#ECECEC" d="M231.291,17.12v4.789l-16.642,20.349v0.177h16.84v4.812h-24.078v-4.878l16.508-20.261V21.93h-15.779V17.12
			H231.291z"/>
		<path fill="#ECECEC" d="M240.252,21.93v7.77h14.125v4.215h-14.125v8.52h15.03v4.812h-20.746V17.12h20.613v4.811H240.252z"/>
	</g>
	<g>
		<rect x="81.444" y="11.055" fill="#ECECEC" width="2" height="40.217"/>
	</g>
</g>
<path fill="#EF3859" stroke="#EF3859" stroke-width="3" stroke-miterlimit="10" d="M-7.391,74.352
	c0,22.666-19.895,41.038-44.435,41.038c-24.537,0-44.428-18.372-44.428-41.038c0-22.667,19.891-41.041,44.428-41.041
	C-27.286,33.311-7.391,51.685-7.391,74.352z"/>
<polygon fill="#ECECEC" stroke="#ECECEC" stroke-width="3" stroke-miterlimit="10" points="-47.817,76.84 -52.779,80.961 
	-34.429,111.053 -20.874,114.141 -21.613,100.412 "/>
<polygon fill="#ECECEC" stroke="#ECECEC" stroke-width="3" stroke-miterlimit="10" points="-57.147,77.834 -53.594,80.788 
	-66.73,102.324 -76.436,104.542 -75.905,94.709 "/>
<path fill="#ECECEC" stroke="#ECECEC" stroke-width="3" stroke-miterlimit="10" d="M-56.897,76.912c0-2.488,2.185-4.511,4.881-4.511
	c2.694,0,4.882,2.022,4.882,4.511c0,2.487-2.188,4.506-4.882,4.506C-54.713,81.418-56.897,79.399-56.897,76.912z"/>
<path fill="#C9C7C7" stroke="#C9C7C7" stroke-miterlimit="10" d="M-43.429,90.202"/>
<path fill="#ECECEC" stroke="#ECECEC" stroke-miterlimit="10" d="M-86.108,68.746h22.597
	C-63.511,68.746-75.318,87.295-86.108,68.746z"/>
<path fill="#EF3859" stroke="#EF3859" stroke-width="3" stroke-miterlimit="10" d="M-79.502,69.782h7.458
	C-72.044,69.782-75.941,75.908-79.502,69.782z"/>
<path fill="#ECECEC" stroke="#ECECEC" stroke-miterlimit="10" d="M-41.889,68.746h22.596
	C-19.293,68.746-31.097,87.295-41.889,68.746z"/>
<path fill="#EF3859" stroke="#EF3859" stroke-width="3" stroke-miterlimit="10" d="M-34.322,69.782h7.461
	C-26.861,69.782-30.758,75.908-34.322,69.782z"/>
<g>
	<path fill="#ECECEC" d="M-86.654,36.009l65.928,12.258c0,0,8.842-0.627,9.641-8.753l-69.609-7.765"/>
	<polyline fill="#ECECEC" points="-65.557,33.831 -68.194,10.552 -26.239,3.734 -30.758,37.312 	"/>
</g>
<text transform="matrix(0.9902 0.1396 -0.1396 0.9902 -61.9246 31.4861)" fill="#EF3859" stroke="#EF3859" stroke-width="3" stroke-miterlimit="10" font-family="'EurostileRegular'" font-size="19.5807">12</text>
<polygon fill="#ECECEC" points="-76.436,64.967 -86.108,64.967 -84.646,66.969 -76.436,66.969 "/>
<polygon fill="#ECECEC" points="-28.966,64.967 -19.293,64.967 -20.756,66.969 -28.966,66.969 "/>
<text transform="matrix(0.4475 0.713 -0.847 0.5315 -27.0168 76.8982)" fill="#ECECEC" stroke="#FFFFFF" stroke-miterlimit="10" font-family="'EurostileRegular'" font-size="8.7061">3</text>
<line fill="none" stroke="#ECECEC" stroke-width="3" stroke-miterlimit="10" x1="-70.493" y1="45.076" x2="-54.173" y2="72.866"/>
</svg>
