<?xml version="1.0" encoding="utf-8"?>
<!-- Generator: Adobe Illustrator 16.0.0, SVG Export Plug-In . SVG Version: 6.00 Build 0)  -->
<!DOCTYPE svg PUBLIC "-//W3C//DTD SVG 1.1//EN" "http://www.w3.org/Graphics/SVG/1.1/DTD/svg11.dtd">
<svg version="1.1" id="Layer_1" xmlns="http://www.w3.org/2000/svg" xmlns:xlink="http://www.w3.org/1999/xlink" x="0px" y="0px"
	 width="370.887px" height="351px" viewBox="0 0 370.887 351" enable-background="new 0 0 370.887 351" xml:space="preserve">
<path fill="#EF3859" stroke="#EF3859" stroke-width="3" stroke-miterlimit="10" d="M313.692,221.499
	c0,65.427-57.423,118.46-128.253,118.46c-70.826,0-128.242-53.033-128.242-118.46c0-65.422,57.416-118.46,128.242-118.46
	C256.27,103.039,313.692,156.077,313.692,221.499z"/>
<polygon fill="#ECECEC" stroke="#ECECEC" stroke-width="3" stroke-miterlimit="10" points="197.007,228.688 182.683,240.587 
	235.65,327.436 274.779,336.357 272.645,296.723 "/>
<polygon fill="#ECECEC" stroke="#ECECEC" stroke-width="3" stroke-miterlimit="10" points="170.077,231.562 180.334,240.085 
	142.412,302.255 114.4,308.646 115.932,280.264 "/>
<path fill="#ECECEC" stroke="#ECECEC" stroke-width="3" stroke-miterlimit="10" d="M170.797,228.891
	c0-7.188,6.307-13.013,14.09-13.013c7.776,0,14.089,5.825,14.089,13.013c0,7.188-6.313,13.019-14.089,13.019
	C177.104,241.908,170.797,236.078,170.797,228.891z"/>
<path fill="#C9C7C7" stroke="#C9C7C7" stroke-miterlimit="10" d="M209.675,267.266"/>
<path fill="#ECECEC" stroke="#ECECEC" stroke-miterlimit="10" d="M86.479,205.316h65.227
	C151.705,205.316,117.63,258.863,86.479,205.316z"/>
<path fill="#EF3859" stroke="#EF3859" stroke-width="3" stroke-miterlimit="10" d="M105.548,208.316h21.531
	C127.079,208.316,115.831,225.992,105.548,208.316z"/>
<path fill="#ECECEC" stroke="#ECECEC" stroke-miterlimit="10" d="M214.12,205.316h65.222
	C279.342,205.316,245.268,258.863,214.12,205.316z"/>
<path fill="#EF3859" stroke="#EF3859" stroke-width="3" stroke-miterlimit="10" d="M235.965,208.316h21.531
	C257.496,208.316,246.248,225.992,235.965,208.316z"/>
<g>
	<path fill="#ECECEC" d="M84.907,110.824l190.296,35.379c0,0,25.525-1.802,27.826-25.262L102.107,98.53"/>
	<polyline fill="#ECECEC" points="145.801,104.54 138.189,37.344 259.292,17.665 246.249,114.593 	"/>
</g>
<text transform="matrix(0.9902 0.1396 -0.1396 0.9902 156.2847 97.7637)" fill="#EF3859" font-family="'EurostileRegular'" font-size="56.5191">12</text>
<text transform="matrix(0.9902 0.1396 -0.1396 0.9902 156.2847 97.7637)" fill="none" stroke="#EF3859" stroke-width="3" stroke-miterlimit="10" font-family="'EurostileRegular'" font-size="56.5191">12</text>
<polygon fill="#ECECEC" points="114.4,194.413 86.479,194.413 90.702,200.191 114.4,200.191 "/>
<polygon fill="#ECECEC" points="251.42,194.413 279.342,194.413 275.119,200.191 251.42,200.191 "/>
<text transform="matrix(0.4475 0.713 -0.847 0.5315 257.0449 228.8496)" fill="#ECECEC" font-family="'EurostileRegular'" font-size="25.1286">3</text>
<text transform="matrix(0.4475 0.713 -0.847 0.5315 257.0449 228.8496)" fill="none" stroke="#FFFFFF" stroke-miterlimit="10" font-family="'EurostileRegular'" font-size="25.1286">3</text>
<line fill="none" stroke="#ECECEC" stroke-width="3" stroke-miterlimit="10" x1="131.554" y1="137.001" x2="178.661" y2="217.217"/>
</svg>
