<?xml version="1.0" encoding="utf-8"?>
<!-- Generator: Adobe Illustrator 16.0.0, SVG Export Plug-In . SVG Version: 6.00 Build 0)  -->
<!DOCTYPE svg PUBLIC "-//W3C//DTD SVG 1.1//EN" "http://www.w3.org/Graphics/SVG/1.1/DTD/svg11.dtd">
<svg version="1.1" id="Layer_1" xmlns="http://www.w3.org/2000/svg" xmlns:xlink="http://www.w3.org/1999/xlink" x="0px" y="0px"
	 width="20px" height="20px" viewBox="0 0 20 20" enable-background="new 0 0 20 20" xml:space="preserve">
<path d="M-97.483,2.283h-18.104V-15.6c0-1.463-1.187-2.649-2.65-2.649h-9.052c-1.463,0-2.649,1.186-2.649,2.649V2.283h-17.663
	c-1.463,0-2.649,1.187-2.649,2.649v9.052c0,1.464,1.186,2.649,2.649,2.649h17.663v17.884c0,1.463,1.186,2.647,2.649,2.647h9.052
	c1.463,0,2.65-1.187,2.65-2.647V16.634h18.104c1.464,0,2.649-1.187,2.649-2.649V4.932C-94.833,3.469-96.019,2.283-97.483,2.283z"/>
<path d="M-47.382,4.7h-12.006V-7.16c0-0.97-0.787-1.757-1.757-1.757h-6.002c-0.971,0-1.757,0.787-1.757,1.757V4.7h-11.713
	c-0.971,0-1.757,0.787-1.757,1.757v6.003c0,0.97,0.787,1.757,1.757,1.757h11.713v11.859c0,0.971,0.787,1.757,1.757,1.757h6.002
	c0.971,0,1.757-0.786,1.757-1.757V14.217h12.006c0.971,0,1.757-0.787,1.757-1.757V6.457C-45.625,5.486-46.411,4.7-47.382,4.7z"/>
<path d="M-8.602,7.45h-8.958v-8.848c0-0.724-0.587-1.311-1.311-1.311h-4.478c-0.724,0-1.311,0.587-1.311,1.311V7.45h-8.738
	c-0.724,0-1.311,0.587-1.311,1.311v4.479c0,0.724,0.587,1.311,1.311,1.311h8.738v8.848c0,0.725,0.587,1.311,1.311,1.311h4.478
	c0.724,0,1.311-0.586,1.311-1.311v-8.848h8.958c0.724,0,1.311-0.587,1.311-1.311V8.761C-7.292,8.037-7.878,7.45-8.602,7.45z"/>
<path d="M17.876,7.745h-5.69V2.124c0-0.459-0.373-0.833-0.832-0.833H8.508c-0.46,0-0.833,0.373-0.833,0.833v5.621H2.124
	c-0.46,0-0.833,0.373-0.833,0.833v2.845c0,0.459,0.373,0.833,0.833,0.833h5.551v5.62c0,0.46,0.373,0.833,0.833,0.833h2.846
	c0.459,0,0.832-0.372,0.832-0.833v-5.62h5.69c0.46,0,0.833-0.373,0.833-0.833V8.578C18.708,8.118,18.336,7.745,17.876,7.745z"/>
</svg>
