<?xml version="1.0" encoding="utf-8"?>
<!-- Generator: Adobe Illustrator 16.0.0, SVG Export Plug-In . SVG Version: 6.00 Build 0)  -->
<!DOCTYPE svg PUBLIC "-//W3C//DTD SVG 1.1//EN" "http://www.w3.org/Graphics/SVG/1.1/DTD/svg11.dtd">
<svg version="1.1" id="Layer_1" xmlns="http://www.w3.org/2000/svg" xmlns:xlink="http://www.w3.org/1999/xlink" x="0px" y="0px"
	 width="396.221px" height="58.667px" viewBox="0 0 396.221 58.667" enable-background="new 0 0 396.221 58.667"
	 xml:space="preserve">
<g enable-background="new    ">
	<path fill="#DE7571" d="M26.462,13.208v13.153h2.979l12.359-13.153h4.392L32.421,27.73l15.45,15.604h-4.657L29.441,29.23h-2.979
		v14.104h-3.399V13.208H26.462z"/>
	<path fill="#DE7571" d="M64.843,36.955h3.156l0.022,0.773c0,2.192-0.666,3.726-1.998,4.602c-1.332,0.875-3.667,1.312-7.007,1.312
		c-3.884,0-6.434-0.709-7.647-2.13c-1.214-1.419-1.821-4.402-1.821-8.949c0-4.208,0.61-7.033,1.832-8.476
		c1.221-1.441,3.612-2.162,7.173-2.162c3.884,0,6.43,0.625,7.636,1.876c1.207,1.25,1.81,3.884,1.81,7.901v1.655H52.814
		c0,3.325,0.356,5.444,1.07,6.356c0.713,0.912,2.38,1.368,4.999,1.368c2.486,0,4.102-0.217,4.845-0.651
		c0.743-0.434,1.114-1.372,1.114-2.813V36.955z M64.843,30.952l-0.022-0.993c0-2.28-0.375-3.763-1.125-4.447
		c-0.75-0.684-2.369-1.026-4.855-1.026c-2.502,0-4.124,0.401-4.867,1.203c-0.743,0.802-1.115,2.557-1.115,5.264H64.843z"/>
	<path fill="#DE7571" d="M87.553,36.955h3.156l0.022,0.773c0,2.192-0.666,3.726-1.998,4.602c-1.332,0.875-3.667,1.312-7.007,1.312
		c-3.884,0-6.434-0.709-7.647-2.13c-1.214-1.419-1.821-4.402-1.821-8.949c0-4.208,0.61-7.033,1.832-8.476
		c1.221-1.441,3.612-2.162,7.173-2.162c3.884,0,6.43,0.625,7.636,1.876c1.207,1.25,1.81,3.884,1.81,7.901v1.655H75.525
		c0,3.325,0.356,5.444,1.07,6.356c0.713,0.912,2.38,1.368,4.999,1.368c2.486,0,4.102-0.217,4.845-0.651
		c0.743-0.434,1.114-1.372,1.114-2.813V36.955z M87.553,30.952l-0.022-0.993c0-2.28-0.375-3.763-1.125-4.447
		c-0.75-0.684-2.369-1.026-4.855-1.026c-2.502,0-4.124,0.401-4.867,1.203c-0.743,0.802-1.115,2.557-1.115,5.264H87.553z"/>
	<path fill="#DE7571" d="M95.587,22.234h3.09l-0.155,2.671l0.088,0.066c1.074-2.031,3.384-3.046,6.93-3.046
		c3.134,0,5.29,0.794,6.467,2.383c1.177,1.59,1.766,4.518,1.766,8.784c0,3.959-0.596,6.706-1.788,8.244
		c-1.192,1.537-3.311,2.306-6.356,2.306c-3.473,0-5.768-0.934-6.886-2.803h-0.066v11.543h-3.09V22.234z M104.68,24.485
		c-2.472,0-4.083,0.534-4.833,1.601c-0.75,1.066-1.125,3.358-1.125,6.875c0,3.252,0.405,5.418,1.214,6.5
		c0.809,1.081,2.435,1.622,4.878,1.622c2.324,0,3.858-0.522,4.602-1.567c0.743-1.044,1.115-3.2,1.115-6.467
		c0-3.59-0.361-5.915-1.082-6.974C108.727,25.015,107.137,24.485,104.68,24.485z"/>
	<path fill="#DE7571" d="M152.904,13.208l-11.388,17.546v12.58h-3.399v-12.58l-11.102-17.546h3.951l6.467,10.174l1.236,1.965
		c0.162,0.235,0.368,0.559,0.618,0.971l0.596,0.993h0.088c0.265-0.441,0.463-0.772,0.596-0.993l0.596-0.971l1.258-1.965
		l6.445-10.174H152.904z"/>
	<path fill="#DE7571" d="M164.094,21.925c3.899,0,6.43,0.677,7.592,2.03c1.162,1.354,1.744,4.297,1.744,8.828
		c0,4.532-0.582,7.475-1.744,8.828c-1.163,1.354-3.693,2.03-7.592,2.03c-3.884,0-6.408-0.676-7.57-2.03
		c-1.163-1.354-1.744-4.296-1.744-8.828c0-4.531,0.581-7.475,1.744-8.828C157.686,22.602,160.21,21.925,164.094,21.925z
		 M164.094,24.485c-2.737,0-4.433,0.445-5.087,1.336c-0.655,0.89-0.982,3.211-0.982,6.963s0.327,6.073,0.982,6.963
		c0.655,0.891,2.351,1.336,5.087,1.336c2.751,0,4.455-0.445,5.109-1.336c0.654-0.89,0.982-3.211,0.982-6.963
		s-0.328-6.073-0.982-6.963C168.549,24.93,166.846,24.485,164.094,24.485z"/>
	<path fill="#DE7571" d="M195.457,22.234v21.1h-3.09l0.221-2.759l-0.066-0.066c-1.074,2.09-3.37,3.134-6.886,3.134
		c-4.929,0-7.394-2.457-7.394-7.371V22.234h3.09v14.037c0,1.913,0.316,3.193,0.949,3.84c0.633,0.648,1.876,0.972,3.73,0.972
		c2.428,0,4.094-0.482,4.999-1.446c0.905-0.963,1.357-2.732,1.357-5.308V22.234H195.457z"/>
	<path fill="#DE7571" d="M223.642,12.898c5.693,0,9.254,0.832,10.682,2.494c1.428,1.663,2.141,5.819,2.141,12.47
		c0,7.166-0.684,11.587-2.053,13.265c-1.367,1.678-4.958,2.516-10.77,2.516c-5.783,0-9.369-0.831-10.76-2.493
		c-1.391-1.663-2.086-5.96-2.086-12.89V26.14l0.045-2.847c0-4.002,0.9-6.735,2.703-8.199S218.712,12.898,223.642,12.898z
		 M223.619,15.767c-4.767,0-7.556,0.53-8.364,1.589c-0.811,1.06-1.215,4.694-1.215,10.903c0,6.224,0.404,9.865,1.215,10.925
		c0.809,1.06,3.598,1.589,8.364,1.589c4.782,0,7.577-0.529,8.387-1.589s1.214-4.701,1.214-10.925v-1.964l-0.021-2.848
		c0-3.325-0.56-5.437-1.678-6.334C230.401,16.216,227.769,15.767,223.619,15.767z"/>
	<path fill="#DE7571" d="M240.194,22.234h2.979l-0.089,2.869l0.089,0.066c0.941-2.163,3.28-3.244,7.019-3.244
		c3.016,0,5.058,0.529,6.125,1.589c1.066,1.06,1.6,3.09,1.6,6.092v13.728h-3.09V29.871v-0.795c0-1.81-0.346-3.027-1.037-3.652
		s-2.023-0.938-3.995-0.938c-4.341,0-6.511,2.053-6.511,6.158v12.69h-3.09V22.234z"/>
	<path fill="#DE7571" d="M285.461,16.363v26.971h-3.399V16.363h-9.821v-3.155h22.954v3.155H285.461z"/>
	<path fill="#DE7571" d="M298.372,22.234h3.09l-0.309,2.428l0.066,0.066c1.221-1.986,3.236-2.979,6.047-2.979
		c3.885,0,5.826,2.001,5.826,6.003l-0.021,1.457h-3.046l0.066-0.53c0.044-0.559,0.066-0.934,0.066-1.125
		c0-2.163-1.178-3.245-3.531-3.245c-3.443,0-5.165,2.127-5.165,6.379v12.646h-3.09V22.234z"/>
	<path fill="#DE7571" d="M319.296,28.149h-3.068c0-2.457,0.555-4.108,1.666-4.955c1.111-0.846,3.285-1.269,6.522-1.269
		c3.517,0,5.894,0.519,7.13,1.556c1.234,1.037,1.854,3.013,1.854,5.926v13.927h-3.09l0.242-2.273l-0.066-0.021
		c-1.178,1.736-3.568,2.604-7.173,2.604c-5.327,0-7.989-2.141-7.989-6.422c0-2.546,0.596-4.304,1.787-5.275
		c1.191-0.971,3.348-1.456,6.467-1.456c3.709,0,5.93,0.728,6.666,2.185l0.066-0.022v-2.56c0-2.413-0.332-3.977-0.994-4.69
		c-0.662-0.713-2.111-1.07-4.348-1.07c-3.797,0-5.694,1.067-5.694,3.2C319.273,27.634,319.28,27.84,319.296,28.149z M324.261,32.894
		c-2.369,0-3.91,0.25-4.623,0.75c-0.714,0.501-1.07,1.575-1.07,3.223c0,1.707,0.354,2.836,1.059,3.388
		c0.707,0.552,2.141,0.828,4.305,0.828c4.355,0,6.533-1.324,6.533-3.973c0-1.663-0.424-2.781-1.27-3.355
		C328.349,33.181,326.704,32.894,324.261,32.894z"/>
	<path fill="#DE7571" d="M353.614,35.719h3.09l0.023,1.147c0,4.518-2.959,6.775-8.873,6.775c-3.797,0-6.305-0.713-7.525-2.141
		c-1.223-1.427-1.832-4.37-1.832-8.828c0-4.179,0.621-7.015,1.865-8.508c1.242-1.493,3.607-2.24,7.096-2.24
		c3.428,0,5.768,0.504,7.018,1.512s1.877,2.902,1.877,5.683h-3.09v-0.552c0-1.633-0.406-2.722-1.215-3.266
		c-0.809-0.545-2.42-0.817-4.834-0.817c-2.324,0-3.818,0.516-4.48,1.545c-0.662,1.03-0.992,3.341-0.992,6.931
		c0,3.502,0.379,5.731,1.137,6.688s2.527,1.435,5.309,1.435c2.354,0,3.846-0.312,4.479-0.938
		C353.298,39.519,353.614,38.044,353.614,35.719z"/>
	<path fill="#DE7571" d="M364.12,13.208v17.502h1.412l7.461-8.476h3.885l-9.027,9.689l10.66,11.41h-4.172l-8.961-10.219h-1.258
		v10.219h-3.09V13.208H364.12z"/>
</g>
</svg>
