<?xml version="1.0" encoding="utf-8"?>
<!-- Generator: Adobe Illustrator 16.0.0, SVG Export Plug-In . SVG Version: 6.00 Build 0)  -->
<!DOCTYPE svg PUBLIC "-//W3C//DTD SVG 1.1//EN" "http://www.w3.org/Graphics/SVG/1.1/DTD/svg11.dtd">
<svg version="1.1" id="Layer_1" xmlns="http://www.w3.org/2000/svg" xmlns:xlink="http://www.w3.org/1999/xlink" x="0px" y="0px"
	 width="575.554px" height="57.312px" viewBox="0 0 575.554 57.312" enable-background="new 0 0 575.554 57.312"
	 xml:space="preserve">
<g>
	<g enable-background="new    ">
		<path fill="#FC9D9A" d="M12.269,45.246V15.12h14.81c3.472,0,5.837,0.555,7.096,1.666c1.258,1.111,1.887,3.204,1.887,6.279
			c0,3.723-1.479,5.915-4.436,6.577v0.11c3.443,0.529,5.165,2.921,5.165,7.173c0,3.075-0.662,5.23-1.986,6.467
			c-1.324,1.235-3.634,1.854-6.93,1.854H12.269z M17.985,27.766h6.997c2.266,0,3.711-0.25,4.337-0.751
			c0.625-0.5,0.938-1.655,0.938-3.465c0-2.413-1.369-3.62-4.105-3.62h-8.166V27.766z M17.985,40.434h6.268l2.008-0.044
			c1.928,0,3.197-0.272,3.807-0.816c0.611-0.545,0.916-1.692,0.916-3.443c0-1.824-0.32-2.972-0.96-3.443
			c-0.64-0.471-2.218-0.706-4.734-0.706h-7.305V40.434z"/>
		<path fill="#FC9D9A" d="M65.901,15.12L54.733,33.747v11.499h-5.716V33.747L38.158,15.12h6.621l4.546,7.945
			c0.25,0.441,0.677,1.258,1.28,2.449l0.64,1.214l0.618,1.214h0.155l0.64-1.214l0.64-1.214c0.544-1.089,0.979-1.905,1.302-2.449
			l4.591-7.945H65.901z"/>
		<path fill="#FC9D9A" d="M73.538,19.93v7.77h14.125v4.215H73.538v8.52h15.03v4.812H67.821V15.12h20.614v4.811H73.538z"/>
	</g>
	<g enable-background="new    ">
		<path fill="#FE4365" d="M126.485,23.903h-5.583c-0.03-0.279-0.044-0.485-0.044-0.617c-0.132-1.692-0.507-2.756-1.125-3.189
			s-2.075-0.651-4.37-0.651c-2.708,0-4.477,0.251-5.308,0.751c-0.831,0.5-1.247,1.552-1.247,3.155c0,1.898,0.338,3.039,1.015,3.422
			c0.677,0.382,2.913,0.677,6.709,0.883c4.487,0.25,7.39,0.89,8.707,1.92c1.316,1.03,1.975,3.171,1.975,6.422
			c0,4.003-0.772,6.589-2.317,7.758c-1.545,1.17-4.952,1.755-10.219,1.755c-4.738,0-7.883-0.573-9.435-1.722
			c-1.553-1.147-2.329-3.472-2.329-6.974l-0.022-1.104h5.562l0.022,0.64c0,2.104,0.367,3.392,1.104,3.862
			c0.735,0.471,2.744,0.706,6.025,0.706c2.561,0,4.194-0.271,4.9-0.816c0.706-0.544,1.06-1.802,1.06-3.774
			c0-1.456-0.269-2.424-0.806-2.901c-0.538-0.479-1.696-0.77-3.476-0.872l-3.156-0.199c-4.767-0.279-7.813-0.941-9.137-1.986
			c-1.324-1.044-1.986-3.288-1.986-6.731c0-3.517,0.798-5.859,2.395-7.029c1.596-1.17,4.786-1.755,9.568-1.755
			c4.532,0,7.584,0.537,9.159,1.611c1.574,1.074,2.361,3.171,2.361,6.29V23.903z"/>
		<path fill="#FE4365" d="M159.149,15.12v30.126h-9.689l-8.607-16.531c-0.427-0.823-1.096-2.266-2.008-4.325l-0.971-2.163
			l-0.949-2.163h-0.221l0.088,1.986l0.066,1.964l0.044,3.951v17.281h-5.716V15.12h9.689l7.835,15.272
			c0.691,1.354,1.494,2.994,2.406,4.922l1.148,2.449l1.147,2.473h0.199l-0.066-1.942l-0.066-1.942l-0.044-3.885V15.12H159.149z"/>
		<path fill="#FE4365" d="M176.96,14.854c5.474,0,8.997,0.909,10.572,2.726c1.574,1.817,2.361,5.882,2.361,12.194
			c0,6.901-0.791,11.249-2.373,13.044s-5.411,2.692-11.488,2.692c-5.473,0-9.012-0.886-10.616-2.659
			c-1.604-1.773-2.406-5.676-2.406-11.709c0-7.18,0.787-11.689,2.362-13.529C166.948,15.774,170.81,14.854,176.96,14.854z
			 M176.519,19.755c-3.84,0-6.084,0.493-6.731,1.479c-0.648,0.985-0.971,4.399-0.971,10.24c0,4.326,0.378,6.931,1.137,7.813
			c0.757,0.883,2.99,1.324,6.698,1.324c3.546,0,5.672-0.497,6.378-1.49s1.06-4.006,1.06-9.037c0-5.047-0.335-8.03-1.004-8.95
			C182.416,20.215,180.227,19.755,176.519,19.755z"/>
		<path fill="#FE4365" d="M206.271,14.854c5.474,0,8.997,0.909,10.572,2.726c1.574,1.817,2.361,5.882,2.361,12.194
			c0,6.901-0.791,11.249-2.373,13.044s-5.411,2.692-11.488,2.692c-5.473,0-9.012-0.886-10.616-2.659
			c-1.604-1.773-2.406-5.676-2.406-11.709c0-7.18,0.787-11.689,2.362-13.529C196.258,15.774,200.12,14.854,206.271,14.854z
			 M205.829,19.755c-3.84,0-6.084,0.493-6.731,1.479c-0.648,0.985-0.971,4.399-0.971,10.24c0,4.326,0.378,6.931,1.137,7.813
			c0.757,0.883,2.99,1.324,6.698,1.324c3.546,0,5.672-0.497,6.378-1.49s1.06-4.006,1.06-9.037c0-5.047-0.335-8.03-1.004-8.95
			C211.726,20.215,209.537,19.755,205.829,19.755z"/>
		<path fill="#FE4365" d="M245.291,15.12v4.789L228.65,40.258v0.177h16.84v4.812h-24.079v-4.878l16.509-20.261V19.93h-15.78V15.12
			H245.291z"/>
		<path fill="#FE4365" d="M254.252,19.93v7.77h14.125v4.215h-14.125v8.52h15.03v4.812h-20.746V15.12h20.614v4.811H254.252z"/>
	</g>
	<g>
		<rect x="95.444" y="9.055" fill="#FE4365" width="2" height="40.217"/>
	</g>
</g>
<g>
	<g enable-background="new    ">
		<path fill="#C8C8A9" d="M294.181,25.33v19.916h-4.553V25.33h-6.926v-4.078h18.65v4.078H294.181z"/>
		<path fill="#C8C8A9" d="M307.558,21.252v3.357h-4.025v-3.357H307.558z M307.558,28.441v16.805h-4.025V28.441H307.558z"/>
		<path fill="#C8C8A9" d="M311.513,28.441h4.025l-0.105,2.584l0.088,0.018c0.82-1.863,2.531-2.795,5.133-2.795
			c3.035,0,4.723,1.037,5.062,3.111h0.07c0.785-2.074,2.514-3.111,5.186-3.111c3.891,0,5.836,1.957,5.836,5.871v11.127h-4.025
			V34.998c0-2.379-0.979-3.568-2.936-3.568c-2.449,0-3.674,1.33-3.674,3.99v9.826h-4.025V34.84c0-1.395-0.185-2.312-0.554-2.751
			s-1.151-0.659-2.347-0.659c-2.473,0-3.709,1.359-3.709,4.078v9.738h-4.025V28.441z"/>
		<path fill="#C8C8A9" d="M351.75,39.867h4.043v0.65c0,3.281-2.461,4.922-7.383,4.922c-3.34,0-5.525-0.568-6.557-1.705
			s-1.547-3.545-1.547-7.225c0-3.27,0.539-5.467,1.617-6.592s3.182-1.688,6.311-1.688c3,0,5.01,0.548,6.029,1.644
			s1.529,3.249,1.529,6.46v1.23h-11.373c-0.023,0.375-0.035,0.621-0.035,0.738c0,1.652,0.255,2.754,0.765,3.305
			s1.526,0.826,3.05,0.826c1.477,0,2.438-0.161,2.883-0.483S351.75,40.933,351.75,39.867z M351.785,35.103l-0.018-0.668
			c0-1.336-0.231-2.203-0.694-2.602s-1.468-0.598-3.015-0.598c-1.5,0-2.476,0.24-2.927,0.721s-0.677,1.529-0.677,3.146H351.785z"/>
		<path fill="#C8C8A9" d="M368.15,28.441h4.025l-0.105,2.584l0.088,0.018c0.82-1.863,2.531-2.795,5.133-2.795
			c3.035,0,4.723,1.037,5.062,3.111h0.07c0.785-2.074,2.514-3.111,5.186-3.111c3.891,0,5.836,1.957,5.836,5.871v11.127h-4.025
			V34.998c0-2.379-0.979-3.568-2.936-3.568c-2.449,0-3.674,1.33-3.674,3.99v9.826h-4.025V34.84c0-1.395-0.185-2.312-0.554-2.751
			s-1.151-0.659-2.347-0.659c-2.473,0-3.709,1.359-3.709,4.078v9.738h-4.025V28.441z"/>
		<path fill="#C8C8A9" d="M401.742,33.31h-4.113c0-2.016,0.469-3.363,1.406-4.043s2.795-1.02,5.572-1.02
			c3.023,0,5.068,0.416,6.135,1.248s1.6,2.42,1.6,4.764v10.986h-4.025l0.193-2.303l-0.105-0.018
			c-0.773,1.676-2.561,2.514-5.361,2.514c-4.066,0-6.1-1.729-6.1-5.186c0-3.492,2.08-5.238,6.24-5.238
			c2.777,0,4.465,0.639,5.062,1.916h0.07v-2.725c0-1.312-0.229-2.183-0.686-2.61s-1.395-0.642-2.812-0.642
			C402.767,30.955,401.742,31.74,401.742,33.31z M404.431,37.722c-2.273,0-3.41,0.785-3.41,2.355c0,1.09,0.234,1.805,0.703,2.145
			s1.453,0.51,2.953,0.51c2.449,0,3.674-0.826,3.674-2.479C408.351,38.566,407.044,37.722,404.431,37.722z"/>
		<path fill="#C8C8A9" d="M416.349,28.441h3.99l-0.158,2.83l0.088,0.018c0.785-2.027,2.543-3.041,5.273-3.041
			c3.973,0,5.959,1.852,5.959,5.555v11.443h-4.025V35.121v-0.633l-0.088-1.178c-0.188-1.254-1.172-1.881-2.953-1.881
			c-2.707,0-4.061,1.283-4.061,3.85v9.967h-4.025V28.441z"/>
		<path fill="#C8C8A9" d="M439.623,33.31h-4.113c0-2.016,0.469-3.363,1.406-4.043s2.795-1.02,5.572-1.02
			c3.023,0,5.068,0.416,6.135,1.248s1.6,2.42,1.6,4.764v10.986h-4.025l0.193-2.303l-0.105-0.018
			c-0.773,1.676-2.561,2.514-5.361,2.514c-4.066,0-6.1-1.729-6.1-5.186c0-3.492,2.08-5.238,6.24-5.238
			c2.777,0,4.465,0.639,5.062,1.916h0.07v-2.725c0-1.312-0.229-2.183-0.686-2.61s-1.395-0.642-2.812-0.642
			C440.648,30.955,439.623,31.74,439.623,33.31z M442.312,37.722c-2.273,0-3.41,0.785-3.41,2.355c0,1.09,0.234,1.805,0.703,2.145
			s1.453,0.51,2.953,0.51c2.449,0,3.674-0.826,3.674-2.479C446.232,38.566,444.925,37.722,442.312,37.722z"/>
		<path fill="#C8C8A9" d="M469.259,28.441v17.121c0,2.742-0.554,4.623-1.661,5.643s-3.149,1.529-6.126,1.529
			c-2.883,0-4.811-0.387-5.783-1.16s-1.459-2.303-1.459-4.588h3.902c0,1.09,0.205,1.79,0.615,2.101s1.324,0.466,2.742,0.466
			c2.496,0,3.744-1.031,3.744-3.094v-3.779l-0.088-0.018c-0.715,1.793-2.355,2.689-4.922,2.689c-2.543,0-4.28-0.615-5.212-1.846
			s-1.397-3.527-1.397-6.891c0-3.164,0.466-5.35,1.397-6.557s2.622-1.811,5.071-1.811c2.672,0,4.424,0.99,5.256,2.971h0.088
			l-0.193-2.777H469.259z M461.332,31.429c-1.547,0-2.54,0.313-2.979,0.94s-0.659,2.054-0.659,4.28c0,2.367,0.22,3.879,0.659,4.535
			s1.45,0.984,3.032,0.984s2.607-0.337,3.076-1.011s0.703-2.165,0.703-4.474c0-2.215-0.234-3.645-0.703-4.289
			S462.949,31.429,461.332,31.429z"/>
		<path fill="#C8C8A9" d="M473.214,28.441h3.99l-0.158,2.83l0.088,0.018c0.785-2.027,2.543-3.041,5.273-3.041
			c3.973,0,5.959,1.852,5.959,5.555v11.443h-4.025V35.121v-0.633l-0.088-1.178c-0.188-1.254-1.172-1.881-2.953-1.881
			c-2.707,0-4.061,1.283-4.061,3.85v9.967h-4.025V28.441z"/>
		<path fill="#C8C8A9" d="M492.304,28.441h4.025l-0.105,2.584l0.088,0.018c0.82-1.863,2.531-2.795,5.133-2.795
			c3.035,0,4.723,1.037,5.062,3.111h0.07c0.785-2.074,2.514-3.111,5.186-3.111c3.891,0,5.836,1.957,5.836,5.871v11.127h-4.025
			V34.998c0-2.379-0.979-3.568-2.936-3.568c-2.449,0-3.674,1.33-3.674,3.99v9.826h-4.025V34.84c0-1.395-0.185-2.312-0.554-2.751
			s-1.151-0.659-2.347-0.659c-2.473,0-3.709,1.359-3.709,4.078v9.738h-4.025V28.441z"/>
		<path fill="#C8C8A9" d="M532.541,39.867h4.043v0.65c0,3.281-2.461,4.922-7.383,4.922c-3.34,0-5.525-0.568-6.557-1.705
			s-1.547-3.545-1.547-7.225c0-3.27,0.539-5.467,1.617-6.592s3.182-1.688,6.311-1.688c3,0,5.01,0.548,6.029,1.644
			s1.529,3.249,1.529,6.46v1.23H525.21c-0.023,0.375-0.035,0.621-0.035,0.738c0,1.652,0.255,2.754,0.765,3.305
			s1.526,0.826,3.05,0.826c1.477,0,2.438-0.161,2.883-0.483S532.541,40.933,532.541,39.867z M532.576,35.103l-0.018-0.668
			c0-1.336-0.231-2.203-0.694-2.602s-1.468-0.598-3.015-0.598c-1.5,0-2.476,0.24-2.927,0.721s-0.677,1.529-0.677,3.146H532.576z"/>
		<path fill="#C8C8A9" d="M539.941,28.441h3.99l-0.158,2.83l0.088,0.018c0.785-2.027,2.543-3.041,5.273-3.041
			c3.973,0,5.959,1.852,5.959,5.555v11.443h-4.025V35.121v-0.633l-0.088-1.178c-0.188-1.254-1.172-1.881-2.953-1.881
			c-2.707,0-4.061,1.283-4.061,3.85v9.967h-4.025V28.441z"/>
		<path fill="#C8C8A9" d="M569.876,28.441V31.5h-6.469v8.438c0,1.559,0.592,2.338,1.775,2.338c1.301,0,1.951-0.943,1.951-2.83
			v-0.668h3.428v0.844c0,0.773-0.023,1.436-0.07,1.986c-0.223,2.566-2.133,3.85-5.73,3.85c-3.586,0-5.379-1.646-5.379-4.939V31.5
			h-2.18v-3.059h2.18v-3.762h4.025v3.762H569.876z"/>
	</g>
</g>
</svg>
