<?xml version="1.0" encoding="utf-8"?>
<!-- Generator: Adobe Illustrator 16.0.0, SVG Export Plug-In . SVG Version: 6.00 Build 0)  -->
<!DOCTYPE svg PUBLIC "-//W3C//DTD SVG 1.1//EN" "http://www.w3.org/Graphics/SVG/1.1/DTD/svg11.dtd">
<svg version="1.1" id="Layer_1" xmlns="http://www.w3.org/2000/svg" xmlns:xlink="http://www.w3.org/1999/xlink" x="0px" y="0px"
	 width="370.887px" height="351px" viewBox="0 0 370.887 351" enable-background="new 0 0 370.887 351" xml:space="preserve">
<g>
	<path fill="#FE4365" stroke="#FC9D9A" stroke-width="3" stroke-miterlimit="10" d="M356.014,172.895
		c0,87.52-76.812,158.46-171.561,158.46c-94.742,0-171.545-70.94-171.545-158.46c0-87.513,76.804-158.46,171.545-158.46
		C279.202,14.435,356.014,85.382,356.014,172.895z"/>
	<g>
		<polygon fill="#F9CDAD" stroke="#FC9D9A" stroke-width="3" stroke-miterlimit="10" points="199.929,182.509 180.768,198.428 
			251.621,314.602 303.961,326.537 301.105,273.519 		"/>
		<polygon fill="#F9CDAD" stroke="#FC9D9A" stroke-width="3" stroke-miterlimit="10" points="167.091,180.034 186.258,195.958 
			115.397,312.127 63.056,324.07 65.918,271.036 		"/>
		<path fill="#F9CDAD" stroke="#FC9D9A" stroke-width="3" stroke-miterlimit="10" d="M164.869,182.782
			c0-9.614,8.437-17.406,18.848-17.406c10.401,0,18.848,7.792,18.848,17.406s-8.446,17.413-18.848,17.413
			C173.305,200.195,164.869,192.396,164.869,182.782z"/>
	</g>
</g>
<path fill="#C9C7C7" stroke="#C9C7C7" stroke-miterlimit="10" d="M216.875,234.114"/>
<path fill="#FFFFFF" stroke="#C9C7C7" stroke-miterlimit="10" d="M76.156,144.561h87.251
	C163.408,144.561,117.826,216.188,76.156,144.561z"/>
<path fill="#FFFFFF" stroke="#C9C7C7" stroke-miterlimit="10" d="M198.741,144.561h87.246
	C285.987,144.561,240.406,216.188,198.741,144.561z"/>
<path fill="#C8C8A9" stroke="#83AF9B" stroke-width="3" stroke-miterlimit="10" d="M106.431,151.585c0-5.051,4.093-9.146,9.14-9.146
	c5.044,0,9.134,4.096,9.134,9.146c0,5.044-4.09,9.127-9.134,9.127C110.524,160.712,106.431,156.629,106.431,151.585z"/>
<path fill="#C8C8A9" stroke="#83AF9B" stroke-width="3" stroke-miterlimit="10" d="M231.306,169.625c0-5.05,4.09-9.141,9.133-9.141
	c5.051,0,9.141,4.091,9.141,9.141c0,5.044-4.09,9.134-9.141,9.134C235.396,178.759,231.306,174.669,231.306,169.625z"/>
<text transform="matrix(0.7479 -0.6638 0.6638 0.7479 172.3364 125.8809)" fill="#FFFFFF" font-family="'Amadeus-Regular'" font-size="29.8751">12</text>
<text transform="matrix(0.9805 0.1963 -0.1963 0.9805 43.0864 168.2422)" fill="#FFFFFF" font-family="'Amadeus-Regular'" font-size="29.8751">9</text>
<text transform="matrix(0.7479 -0.6638 0.6638 0.7479 186.6924 299.6729)" fill="#FFFFFF" font-family="'Amadeus-Regular'" font-size="29.8751">6</text>
<text transform="matrix(0.2915 0.9566 -0.9566 0.2915 283.8022 175.6299)" fill="#FFFFFF" font-family="'Amadeus-Regular'" font-size="29.8751">3</text>
</svg>
