<?xml version="1.0" encoding="utf-8"?>
<!-- Generator: Adobe Illustrator 16.0.0, SVG Export Plug-In . SVG Version: 6.00 Build 0)  -->
<!DOCTYPE svg PUBLIC "-//W3C//DTD SVG 1.1//EN" "http://www.w3.org/Graphics/SVG/1.1/DTD/svg11.dtd">
<svg version="1.1" id="Layer_1" xmlns="http://www.w3.org/2000/svg" xmlns:xlink="http://www.w3.org/1999/xlink" x="0px" y="0px"
	 width="274.779px" height="57.312px" viewBox="0 0 274.779 57.312" enable-background="new 0 0 274.779 57.312"
	 xml:space="preserve">
<g>
	<g enable-background="new    ">
		<path fill="#ECECEC" d="M12.269,45.246V15.12h14.81c3.472,0,5.837,0.555,7.096,1.666c1.258,1.111,1.887,3.204,1.887,6.279
			c0,3.723-1.479,5.915-4.436,6.577v0.11c3.443,0.529,5.165,2.921,5.165,7.173c0,3.075-0.662,5.23-1.986,6.467
			c-1.324,1.235-3.634,1.854-6.93,1.854H12.269z M17.985,27.766h6.997c2.266,0,3.711-0.25,4.337-0.751
			c0.625-0.5,0.938-1.655,0.938-3.465c0-2.413-1.369-3.62-4.105-3.62h-8.166V27.766z M17.985,40.434h6.268l2.008-0.044
			c1.928,0,3.197-0.272,3.807-0.816c0.611-0.545,0.916-1.692,0.916-3.443c0-1.824-0.32-2.972-0.96-3.443
			c-0.64-0.471-2.218-0.706-4.734-0.706h-7.305V40.434z"/>
		<path fill="#ECECEC" d="M65.901,15.12L54.733,33.747v11.499h-5.716V33.747L38.158,15.12h6.621l4.546,7.945
			c0.25,0.441,0.677,1.258,1.28,2.449l0.64,1.214l0.618,1.214h0.155l0.64-1.214l0.64-1.214c0.544-1.089,0.979-1.905,1.302-2.449
			l4.591-7.945H65.901z"/>
		<path fill="#ECECEC" d="M73.537,19.93v7.77h14.125v4.215H73.537v8.52h15.03v4.812H67.821V15.12h20.614v4.811H73.537z"/>
		<path fill="#ECECEC" d="M126.484,23.903h-5.583c-0.03-0.279-0.044-0.485-0.044-0.617c-0.132-1.692-0.507-2.756-1.125-3.189
			s-2.075-0.651-4.37-0.651c-2.708,0-4.477,0.251-5.308,0.751c-0.831,0.5-1.247,1.552-1.247,3.155c0,1.898,0.338,3.039,1.015,3.422
			c0.677,0.382,2.913,0.677,6.709,0.883c4.487,0.25,7.39,0.89,8.707,1.92c1.316,1.03,1.975,3.171,1.975,6.422
			c0,4.003-0.772,6.589-2.317,7.758c-1.545,1.17-4.952,1.755-10.219,1.755c-4.738,0-7.883-0.573-9.435-1.722
			c-1.553-1.147-2.329-3.472-2.329-6.974l-0.022-1.104h5.562l0.022,0.64c0,2.104,0.367,3.392,1.104,3.862
			c0.735,0.471,2.744,0.706,6.025,0.706c2.561,0,4.194-0.271,4.9-0.816c0.706-0.544,1.06-1.802,1.06-3.774
			c0-1.456-0.269-2.424-0.806-2.901c-0.538-0.479-1.696-0.77-3.476-0.872l-3.156-0.199c-4.767-0.279-7.813-0.941-9.137-1.986
			c-1.324-1.044-1.986-3.288-1.986-6.731c0-3.517,0.798-5.859,2.395-7.029c1.596-1.17,4.786-1.755,9.568-1.755
			c4.532,0,7.584,0.537,9.159,1.611c1.574,1.074,2.361,3.171,2.361,6.29V23.903z"/>
		<path fill="#ECECEC" d="M159.149,15.12v30.126h-9.689l-8.607-16.531c-0.427-0.823-1.096-2.266-2.008-4.325l-0.972-2.163
			l-0.949-2.163h-0.221l0.088,1.986l0.066,1.964l0.044,3.951v17.281h-5.716V15.12h9.688l7.836,15.272
			c0.691,1.354,1.493,2.994,2.405,4.922l1.147,2.449l1.148,2.473h0.198l-0.066-1.942l-0.065-1.942l-0.045-3.885V15.12H159.149z"/>
		<path fill="#ECECEC" d="M176.96,14.854c5.475,0,8.998,0.909,10.572,2.726c1.574,1.817,2.361,5.882,2.361,12.194
			c0,6.901-0.791,11.249-2.373,13.044c-1.581,1.795-5.41,2.692-11.487,2.692c-5.474,0-9.013-0.886-10.616-2.659
			s-2.405-5.676-2.405-11.709c0-7.18,0.787-11.689,2.362-13.529C166.948,15.774,170.809,14.854,176.96,14.854z M176.518,19.755
			c-3.84,0-6.084,0.493-6.73,1.479c-0.648,0.985-0.972,4.399-0.972,10.24c0,4.326,0.378,6.931,1.137,7.813
			c0.757,0.883,2.99,1.324,6.698,1.324c3.546,0,5.672-0.497,6.379-1.49c0.705-0.993,1.059-4.006,1.059-9.037
			c0-5.047-0.334-8.03-1.004-8.95C182.415,20.215,180.227,19.755,176.518,19.755z"/>
		<path fill="#ECECEC" d="M206.27,14.854c5.473,0,8.996,0.909,10.571,2.726c1.574,1.817,2.361,5.882,2.361,12.194
			c0,6.901-0.791,11.249-2.372,13.044c-1.582,1.795-5.412,2.692-11.488,2.692c-5.473,0-9.012-0.886-10.615-2.659
			c-1.604-1.773-2.406-5.676-2.406-11.709c0-7.18,0.787-11.689,2.361-13.529C196.257,15.774,200.12,14.854,206.27,14.854z
			 M205.829,19.755c-3.841,0-6.085,0.493-6.732,1.479s-0.971,4.399-0.971,10.24c0,4.326,0.379,6.931,1.137,7.813
			s2.99,1.324,6.698,1.324c3.546,0,5.673-0.497,6.378-1.49c0.707-0.993,1.061-4.006,1.061-9.037c0-5.047-0.336-8.03-1.005-8.95
			C211.725,20.215,209.536,19.755,205.829,19.755z"/>
		<path fill="#ECECEC" d="M245.291,15.12v4.789l-16.642,20.349v0.177h16.84v4.812h-24.078v-4.878l16.508-20.261V19.93h-15.779V15.12
			H245.291z"/>
		<path fill="#ECECEC" d="M254.252,19.93v7.77h14.125v4.215h-14.125v8.52h15.03v4.812h-20.746V15.12h20.613v4.811H254.252z"/>
	</g>
	<g>
		<rect x="95.444" y="9.055" fill="#ECECEC" width="2" height="40.217"/>
	</g>
</g>
</svg>
